# xmcd CD database file
#
# Track frame offsets:
#	150
#	6528
#	14208
#	35073
#	62170
#	72563
#	99090
#	114715
#	129953
#	153958
#	176492
#	208315
#	242083
#	272920
#	297690
#
# Disc length: 4589 seconds
#
# Revision: 0
# Processed by: cddbd v1.5.1PL2 Copyright (c) Steve Scherf et al.
# Submitted via: CDex 1.51
#
DISCID=eb11eb0f
DTITLE=銀杏ボーイズ - DOOR
DYEAR=2005
DGENRE=JPop
TTITLE0=十七歳 (…cutie girls don’t love me and punk.）
TTITLE1=犬人間
TTITLE2=日本発狂
TTITLE3=援助交際
TTITLE4=メス豚
TTITLE5=あの娘は綾波レイが好き
TTITLE6=SEXTEEN
TTITLE7=リビドー
TTITLE8=夢で逢えたら
TTITLE9=銀河鉄道の夜
TTITLE10=惑星基地ベオウルフ
TTITLE11=夜王子と月の姫
TTITLE12=NO FUTURE NO CRY
TTITLE13=人間
TTITLE14=なんとなく僕たちは大人になるんだ
EXTD=YEAR: 2005
EXTT0=
EXTT1=
EXTT2=
EXTT3=
EXTT4=
EXTT5=
EXTT6=
EXTT7=
EXTT8=
EXTT9=
EXTT10=
EXTT11=
EXTT12=
EXTT13=
EXTT14=
PLAYORDER=
